<?xml version="1.0" encoding="utf-8"?>
<!-- Generator: Adobe Illustrator 21.0.0, SVG Export Plug-In . SVG Version: 6.00 Build 0)  -->
<svg version="1.1" id="Layer_1" xmlns="http://www.w3.org/2000/svg" xmlns:xlink="http://www.w3.org/1999/xlink" x="0px" y="0px"
	 viewBox="0 0 15 15" style="enable-background:new 0 0 15 15;" xml:space="preserve">
<style type="text/css">
	.st0{enable-background:new    ;}
	.st1{fill:#FF6D00;}
</style>
<title>Artboard 71</title>
<text transform="matrix(1 0 0 1 0 -27.67)" class="st1" style="font-family:'FontAwesome'; font-size:14px;"></text>
<g class="st0">
	<path class="st1" d="M13.8,1.3c0.3,0,0.6,0.1,0.9,0.4C14.9,1.9,15,2.2,15,2.6v9.5c0,0.3-0.1,0.6-0.4,0.9s-0.5,0.4-0.9,0.4H1.2
		c-0.3,0-0.6-0.1-0.9-0.4C0.1,12.7,0,12.4,0,12.1V2.6c0-0.3,0.1-0.6,0.4-0.9c0.2-0.2,0.5-0.4,0.9-0.4H13.8z M1.2,2.3
		c-0.1,0-0.1,0-0.2,0.1C1,2.5,1,2.5,1,2.6v1.8h13V2.6c0-0.1,0-0.1-0.1-0.2c0,0-0.1-0.1-0.2-0.1H1.2z M13.8,12.3c0.1,0,0.1,0,0.2-0.1
		s0.1-0.1,0.1-0.2V7.3H1v4.8c0,0.1,0,0.1,0.1,0.2c0,0,0.1,0.1,0.2,0.1H13.8z M2,11.3v-1h2v1H2z M5,11.3v-1h3v1H5z"/>
</g>
<text transform="matrix(1 0 0 1 0 52.33)" class="st1" style="font-family:'FontAwesome'; font-size:14px;"></text>
<text transform="matrix(1 0 0 1 0 92.33)" class="st1" style="font-family:'FontAwesome'; font-size:14px;"></text>
</svg>
