<svg id="Main_page" data-name="Main page" xmlns="http://www.w3.org/2000/svg" viewBox="0 0 19.32 21"><defs><style>.cls-1{fill:#fff;}</style></defs><title>Artboard 71</title><path class="cls-1" d="M14.83,2,14.26.53A.71.71,0,0,0,13.6,0H5.45A.71.71,0,0,0,4.8.53L4.22,2A4.43,4.43,0,0,0,0,6.37v10.2A4.43,4.43,0,0,0,4.43,21h10.2a4.43,4.43,0,0,0,4.43-4.43V6.37A4.43,4.43,0,0,0,14.83,2Zm-1.32.53-2,2.87-.67-.6L13.33,2ZM12,1.42,10.85,2.66,9.53,4.11,8.21,2.66,7.09,1.42ZM5.72,2,8.18,4.75l-.67.6-2-2.87ZM17.63,16.57a3,3,0,0,1-3,3H4.43a3,3,0,0,1-3-3V6.37a3,3,0,0,1,3-3L6.8,6.82a.71.71,0,0,0,.5.3h.08a.71.71,0,0,0,.48-.18l1.66-1.5,1.66,1.5a.71.71,0,0,0,.48.18h.08a.71.71,0,0,0,.5-.3l2.38-3.46a3,3,0,0,1,3,3v10.2Z"/><circle class="cls-1" cx="9.53" cy="9.1" r="0.98"/><circle class="cls-1" cx="9.53" cy="12.8" r="0.98"/><circle class="cls-1" cx="9.53" cy="16.49" r="0.98"/></svg>