<?xml version="1.0" encoding="utf-8"?>
<!-- Generator: Adobe Illustrator 21.0.0, SVG Export Plug-In . SVG Version: 6.00 Build 0)  -->
<svg version="1.1" id="Layer_1" xmlns="http://www.w3.org/2000/svg" xmlns:xlink="http://www.w3.org/1999/xlink" x="0px" y="0px"
	 viewBox="0 0 15 15" style="enable-background:new 0 0 15 15;" xml:space="preserve">
<style type="text/css">
	.st0{enable-background:new    ;}
	.st1{fill:#FF6D00;}
</style>
<title>Artboard 71</title>
<text transform="matrix(1 0 0 1 1.63 -67.92)" class="st1" style="font-family:'FontAwesome'; font-size:14px;"></text>
<text transform="matrix(1 0 0 1 1.63 -27.92)" class="st1" style="font-family:'FontAwesome'; font-size:14px;"></text>
<g class="st0">
	<path class="st1" d="M13.2,4.8c0.3,0.7,0.5,1.5,0.5,2.3s-0.2,1.6-0.5,2.3s-0.7,1.4-1.3,1.9s-1.2,1-1.9,1.3s-1.5,0.5-2.3,0.5
		c-0.9,0-1.7-0.2-2.6-0.6c-0.8-0.4-1.5-0.9-2.1-1.6C3,10.9,3,10.8,3,10.7c0-0.1,0-0.1,0.1-0.2l1.1-1.1c0.1,0,0.1-0.1,0.2-0.1
		c0.1,0,0.1,0,0.2,0.1c0.4,0.5,0.8,0.9,1.4,1.1c0.6,0.3,1.1,0.4,1.8,0.4c0.5,0,1.1-0.1,1.6-0.3s0.9-0.5,1.3-0.9s0.6-0.8,0.9-1.3
		s0.3-1,0.3-1.6S11.5,6,11.3,5.5s-0.5-0.9-0.9-1.3S9.7,3.6,9.2,3.4s-1-0.3-1.6-0.3c-0.5,0-1,0.1-1.5,0.3C5.7,3.5,5.3,3.8,4.9,4.2
		L6,5.2c0.2,0.2,0.2,0.3,0.1,0.5C6,6,5.8,6.1,5.6,6.1H2.1C2,6.1,1.9,6,1.8,5.9C1.7,5.8,1.6,5.7,1.6,5.6V2.1c0-0.2,0.1-0.4,0.3-0.5
		c0.2-0.1,0.4-0.1,0.5,0.1l1,1c0.6-0.5,1.2-0.9,1.9-1.2c0.7-0.3,1.5-0.4,2.2-0.4c0.8,0,1.6,0.2,2.3,0.5c0.7,0.3,1.4,0.7,1.9,1.3
		C12.4,3.4,12.8,4,13.2,4.8z M8.6,4.8v3.5c0,0.1,0,0.1-0.1,0.2S8.5,8.6,8.4,8.6H5.9c-0.1,0-0.1,0-0.2-0.1S5.6,8.4,5.6,8.3V7.8
		c0-0.1,0-0.1,0.1-0.2s0.1-0.1,0.2-0.1h1.8V4.8c0-0.1,0-0.1,0.1-0.2s0.1-0.1,0.2-0.1h0.5c0.1,0,0.1,0,0.2,0.1S8.6,4.8,8.6,4.8z"/>
</g>
<text transform="matrix(1 0 0 1 1.63 52.08)" class="st1" style="font-family:'FontAwesome'; font-size:14px;"></text>
</svg>
