<svg id="Main_page" data-name="Main page" xmlns="http://www.w3.org/2000/svg" viewBox="0 0 19.32 21"><defs><style>.cls-1{fill:#fff;}</style></defs><title>Artboard 71</title><path class="cls-1" d="M6.9,2.09a.51.51,0,0,1,.5.5v4.9a.51.51,0,0,1-.5.5H2a.51.51,0,0,1-.5-.5V2.59a.51.51,0,0,1,.5-.5H6.9m0-1.5H2a2,2,0,0,0-2,2v4.9a2,2,0,0,0,2,2H6.9a2,2,0,0,0,2-2V2.59a2,2,0,0,0-2-2Z"/><path class="cls-1" d="M6.9,12a.51.51,0,0,1,.5.5v4.9a.51.51,0,0,1-.5.5H2a.51.51,0,0,1-.5-.5v-4.9A.51.51,0,0,1,2,12H6.9m0-1.5H2a2,2,0,0,0-2,2v4.9a2,2,0,0,0,2,2H6.9a2,2,0,0,0,2-2v-4.9a2,2,0,0,0-2-2Z"/><path class="cls-1" d="M13.09,12v1.7h-1.7V12h1.7m.5-1.5h-2.7a1,1,0,0,0-1,1v2.7a1,1,0,0,0,1,1h2.7a1,1,0,0,0,1-1v-2.7a1,1,0,0,0-1-1Z"/><path class="cls-1" d="M17.79,16.68v1.7h-1.7v-1.7h1.7m.5-1.5h-2.7a1,1,0,0,0-1,1v2.7a1,1,0,0,0,1,1h2.7a1,1,0,0,0,1-1v-2.7a1,1,0,0,0-1-1Z"/><path class="cls-1" d="M16.8,2.09a.51.51,0,0,1,.5.5v4.9a.51.51,0,0,1-.5.5h-4.9a.51.51,0,0,1-.5-.5V2.59a.51.51,0,0,1,.5-.5h4.9m0-1.5h-4.9a2,2,0,0,0-2,2v4.9a2,2,0,0,0,2,2h4.9a2,2,0,0,0,2-2V2.59a2,2,0,0,0-2-2Z"/><rect class="cls-1" x="3.04" y="3.63" width="2.82" height="2.82" rx="1.35" ry="1.35"/><rect class="cls-1" x="3.04" y="13.52" width="2.82" height="2.82" rx="1.35" ry="1.35"/><rect class="cls-1" x="12.94" y="3.63" width="2.82" height="2.82" rx="1.35" ry="1.35"/></svg>