<?xml version="1.0" encoding="utf-8"?>
<!-- Generator: Adobe Illustrator 21.0.0, SVG Export Plug-In . SVG Version: 6.00 Build 0)  -->
<svg version="1.1" id="Layer_1" xmlns="http://www.w3.org/2000/svg" xmlns:xlink="http://www.w3.org/1999/xlink" x="0px" y="0px"
	 viewBox="0 0 15 15" style="enable-background:new 0 0 15 15;" xml:space="preserve">
<style type="text/css">
	.st0{enable-background:new    ;}
	.st1{fill:#FF6D00;}
</style>
<title>Artboard 71</title>
<g class="st0">
	<path class="st1" d="M4.7,0.5c0.9-0.2,1.9-0.3,3-0.3c1.1,0,2.1,0.1,3,0.3s1.7,0.4,2.2,0.7c0.5,0.3,0.8,0.6,0.8,1v1
		c0,0.4-0.3,0.7-0.8,1c-0.5,0.3-1.3,0.6-2.2,0.7s-1.9,0.3-3,0.3c-1.1,0-2.1-0.1-3-0.3S3.1,4.5,2.6,4.2C2,3.9,1.8,3.6,1.8,3.2v-1
		c0-0.4,0.3-0.7,0.8-1C3.1,0.9,3.8,0.7,4.7,0.5z M4.3,5.9c1.1,0.2,2.2,0.3,3.5,0.3s2.4-0.1,3.5-0.3s1.9-0.6,2.5-1v1.3
		c0,0.4-0.3,0.7-0.8,1s-1.3,0.6-2.2,0.7s-1.9,0.3-3,0.3c-1.1,0-2.1-0.1-3-0.3S3.1,7.5,2.6,7.2C2,6.9,1.8,6.6,1.8,6.2V4.9
		C2.4,5.3,3.2,5.7,4.3,5.9z M4.3,8.9c1.1,0.2,2.2,0.3,3.5,0.3s2.4-0.1,3.5-0.3s1.9-0.6,2.5-1v1.3c0,0.4-0.3,0.7-0.8,1
		s-1.3,0.6-2.2,0.7s-1.9,0.3-3,0.3c-1.1,0-2.1-0.1-3-0.3s-1.7-0.4-2.2-0.7C2,9.9,1.8,9.6,1.8,9.2V7.9C2.4,8.3,3.2,8.7,4.3,8.9z
		 M4.3,11.9c1.1,0.2,2.2,0.3,3.5,0.3s2.4-0.1,3.5-0.3s1.9-0.6,2.5-1v1.3c0,0.4-0.3,0.7-0.8,1s-1.3,0.6-2.2,0.7s-1.9,0.3-3,0.3
		c-1.1,0-2.1-0.1-3-0.3s-1.7-0.4-2.2-0.7c-0.5-0.3-0.8-0.6-0.8-1v-1.3C2.4,11.3,3.2,11.7,4.3,11.9z"/>
</g>
<text transform="matrix(1 0 0 1 1.75 52.21)" class="st1" style="font-family:'FontAwesome'; font-size:14px;"></text>
<text transform="matrix(1 0 0 1 1.75 92.21)" class="st1" style="font-family:'FontAwesome'; font-size:14px;"></text>
<text transform="matrix(1 0 0 1 1.75 132.21)" class="st1" style="font-family:'FontAwesome'; font-size:14px;"></text>
</svg>
