<svg id="Main_page" data-name="Main page" xmlns="http://www.w3.org/2000/svg" viewBox="0 0 35 35"><defs><style>.cls-1{fill:#fff;}.cls-2{fill:#e0e0e0;}</style></defs><title>Artboard 71</title><rect class="cls-1" x="0.5" y="0.5" width="34" height="34" rx="16.59" ry="16.59"/><path class="cls-2" d="M17.91,1A16.11,16.11,0,0,1,34,17.09v.82A16.11,16.11,0,0,1,17.91,34h-.82A16.11,16.11,0,0,1,1,17.91v-.82A16.11,16.11,0,0,1,17.09,1h.82m0-1h-.82A17.14,17.14,0,0,0,0,17.09v.82A17.14,17.14,0,0,0,17.09,35h.82A17.14,17.14,0,0,0,35,17.91v-.82A17.14,17.14,0,0,0,17.91,0Z"/><path d="M13.38,19.8a.52.52,0,0,0,.5.38h8.37a.52.52,0,0,0,.5-.36L25,13a.52.52,0,0,0-.5-.69H14.66a.52.52,0,0,0,0,1l9.1,0-1.89,5.77H14.29l-2.12-7.61a.52.52,0,0,0-.42-.38l-3.14-.52a.52.52,0,1,0-.17,1l2.81.47Zm6.93-3a.52.52,0,0,0,0-1h-4a.52.52,0,0,0,0,1ZM16.5,22.67a1.7,1.7,0,1,0-1.7,1.7,1.7,1.7,0,0,0,1.7-1.7Zm-2.35,0a.65.65,0,1,1,.65.65.65.65,0,0,1-.65-.65Zm8.37,0a1.7,1.7,0,1,0-1.7,1.7,1.7,1.7,0,0,0,1.7-1.7Zm-2.35,0a.65.65,0,1,1,.65.65.65.65,0,0,1-.65-.65Z"/></svg>