<svg xmlns="http://www.w3.org/2000/svg" viewBox="0 0 15 15"><title>Artboard 71</title><path d="M116-9a3,3,0,0,1,3,3V21a3,3,0,0,1-3,3H-6a3,3,0,0,1-3-3V-6A3,3,0,0,1-6-9H116m0-1H-6a4,4,0,0,0-4,4V21a4,4,0,0,0,4,4H116a4,4,0,0,0,4-4V-6a4,4,0,0,0-4-4Z" style="fill:#e0e0e0"/><path d="M2.15,12a2.45,2.45,0,0,1-.64-2V10a.82.82,0,0,1,.57-.75l2.14-1a1.08,1.08,0,0,1,.45-.1.92.92,0,0,1,.74.36l.73.92,0,.06,0,.06.07,0A6.66,6.66,0,0,0,8.26,8.27,8.21,8.21,0,0,0,9.6,6.64c-.15-.17-.47-.55-.64-.77a1.2,1.2,0,0,1-.1-1.27l.9-2.11a1,1,0,0,1,.73-.59h1a1.53,1.53,0,0,1,.74.27,3.5,3.5,0,0,1,1.31,2.58A4.1,4.1,0,0,1,13,6.93a14.31,14.31,0,0,1-3.16,3.91A10.85,10.85,0,0,1,5.46,13l-.08,0a2.15,2.15,0,0,1-.57.07A3.94,3.94,0,0,1,2.15,12Zm9.29-9.12H10.7L9.82,5c-.06.15-.06.2,0,.23.21.27.65.77.64.78a.86.86,0,0,1,.12,1.1A9.31,9.31,0,0,1,9,9.05a7.64,7.64,0,0,1-2.32,1.43A1.07,1.07,0,0,1,5.33,10l-.68-.86-2.09,1a1.38,1.38,0,0,0,.36,1.17,2.93,2.93,0,0,0,1.89.73,1.09,1.09,0,0,0,.29,0l.08,0a9.89,9.89,0,0,0,4-1.94A13.52,13.52,0,0,0,12.07,6.5a3.11,3.11,0,0,0,.37-1.66A2.56,2.56,0,0,0,11.61,3a1.24,1.24,0,0,1-.17-.11Z" style="fill:#757575"/></svg>