<svg id="Main_page" data-name="Main page" xmlns="http://www.w3.org/2000/svg" viewBox="0 0 19.32 21"><defs><style>.cls-1{fill:#fff;}</style></defs><title>Artboard 71</title><path class="cls-1" d="M13.78,10.95a6,6,0,1,0-8.24,0c-1.82,1.56-4.29,3.71-4.29,8.67v.89H18.07v-.89C18.07,14.66,15.6,12.51,13.78,10.95ZM5.39,6.54a4.27,4.27,0,1,1,4.27,4.27A4.28,4.28,0,0,1,5.39,6.54ZM3.05,18.73c.26-3.53,2.06-5.08,3.67-6.46l.14-.12a7.28,7.28,0,0,0,2.81.59,7.26,7.26,0,0,0,2.8-.59l.14.12c1.6,1.38,3.41,2.93,3.67,6.46Z"/></svg>