<svg id="Main_page" data-name="Main page" xmlns="http://www.w3.org/2000/svg" viewBox="0 0 35 35"><defs><style>.cls-1{fill:#fff;}.cls-2{fill:#e0e0e0;}</style></defs><title>Artboard 71</title><path class="cls-1" d="M17.5,34.5a17,17,0,1,1,17-17A17,17,0,0,1,17.5,34.5Z"/><path class="cls-2" d="M17.5,1A16.5,16.5,0,1,1,1,17.5,16.52,16.52,0,0,1,17.5,1m0-1A17.5,17.5,0,1,0,35,17.5,17.55,17.55,0,0,0,17.5,0Z"/><rect x="11.5" y="12.84" width="12" height="1.31" rx="0.65" ry="0.65"/><rect x="11.5" y="16.84" width="12" height="1.31" rx="0.65" ry="0.65"/><rect x="11.5" y="20.84" width="12" height="1.31" rx="0.65" ry="0.65"/></svg>