<svg id="Main_page" data-name="Main page" xmlns="http://www.w3.org/2000/svg" viewBox="0 0 35 35"><defs><style>.cls-1{fill:#fff;}.cls-2{fill:#e0e0e0;}</style></defs><title>Artboard 71</title><path class="cls-1" d="M17.5,34.5a17,17,0,1,1,17-17A17,17,0,0,1,17.5,34.5Z"/><path class="cls-2" d="M17.5,1A16.5,16.5,0,1,1,1,17.5,16.52,16.52,0,0,1,17.5,1m0-1A17.55,17.55,0,0,0,0,17.5H0a17.5,17.5,0,0,0,35,0h0A17.55,17.55,0,0,0,17.5,0Z"/><path d="M12.15,22a2.45,2.45,0,0,1-.64-2V20a.82.82,0,0,1,.57-.75l2.14-1a1.08,1.08,0,0,1,.45-.1.92.92,0,0,1,.74.36l.73.92,0,.06,0,.06.07,0a6.66,6.66,0,0,0,1.95-1.21,8.21,8.21,0,0,0,1.34-1.64c-.15-.17-.47-.55-.64-.77a1.2,1.2,0,0,1-.1-1.27l.9-2.11a1,1,0,0,1,.73-.59h1a1.53,1.53,0,0,1,.74.27,3.5,3.5,0,0,1,1.31,2.58A4.1,4.1,0,0,1,23,16.93a14.31,14.31,0,0,1-3.16,3.91A10.85,10.85,0,0,1,15.46,23l-.08,0a2.15,2.15,0,0,1-.57.07A3.94,3.94,0,0,1,12.15,22Zm9.29-9.12H20.7L19.82,15c-.06.15-.06.2,0,.23.21.27.65.77.64.78a.86.86,0,0,1,.12,1.1,9.31,9.31,0,0,1-1.59,2,7.64,7.64,0,0,1-2.32,1.43A1.07,1.07,0,0,1,15.33,20l-.68-.86-2.09,1a1.38,1.38,0,0,0,.36,1.17,2.93,2.93,0,0,0,1.89.73,1.09,1.09,0,0,0,.29,0l.08,0a9.89,9.89,0,0,0,4-1.94,13.52,13.52,0,0,0,2.92-3.58,3.11,3.11,0,0,0,.37-1.66,2.56,2.56,0,0,0-.83-1.8,1.24,1.24,0,0,1-.17-.11Z"/></svg>